<svg xmlns="http://www.w3.org/2000/svg" viewBox="0 0 160 200" width="160" height="200" role="img" aria-label="Arqueiro">
  <ellipse cx="80" cy="184" rx="46" ry="10" fill="#000000" opacity="0.28" />
  <rect x="38" y="98" width="84" height="78" rx="24" fill="#2f8f63" />
  <path d="M38 106 Q80 88 122 106 L122 120 Q80 104 38 120 Z" fill="#256f4d" />
  <circle cx="80" cy="64" r="34" fill="#f0b48a" />
  <path d="M40 66 Q46 24 80 24 Q114 24 120 66 Q100 44 80 44 Q60 44 40 66 Z" fill="#256f4d" />
  <circle cx="68" cy="66" r="4.5" fill="#2a1c14" />
  <circle cx="92" cy="66" r="4.5" fill="#2a1c14" />
  <path d="M68 82 Q80 88 92 82" stroke="#8a4a30" stroke-width="4" fill="none" stroke-linecap="round" />
  <rect x="20" y="104" width="18" height="50" rx="9" fill="#2f8f63" />
  <path d="M128 62 Q152 100 128 138" stroke="#8a5a2a" stroke-width="8" fill="none" stroke-linecap="round" />
  <line x1="128" y1="62" x2="128" y2="138" stroke="#e8e2c9" stroke-width="2" />
  <rect x="60" y="150" width="14" height="26" rx="6" fill="#256f4d" />
  <rect x="86" y="150" width="14" height="26" rx="6" fill="#256f4d" />
</svg>
